<mxfile host="app.diagrams.net" modified="2024-01-20T12:46:08.939Z" agent="Mozilla/5.0 (Macintosh; Intel Mac OS X 10_15_7) AppleWebKit/537.36 (KHTML, like Gecko) Chrome/120.0.0.0 Safari/537.36" version="22.1.21" etag="_QCSvBUknx7R0j3AH9vS" type="github">
  <diagram name="Page-1" id="Ag69iVVA33TQsTkDl-1M">
    <mxGraphModel>
      <root>
        <mxCell id="0" />
        <mxCell id="1" parent="0" />
      </root>
    </mxGraphModel>
  </diagram>
</mxfile>
